<?xml version="1.0" encoding="UTF-8"?>
<svg xmlns="http://www.w3.org/2000/svg" xmlns:xlink="http://www.w3.org/1999/xlink" width="397.95pt" height="655.11pt" viewBox="0 0 397.95 655.11" version="1.1">
<defs>
<clipPath id="clip1">
  <path d="M 16 0 L 397.949219 0 L 397.949219 528 L 16 528 Z M 16 0 "/>
</clipPath>
<clipPath id="clip2">
  <path d="M 257 575 L 308 575 L 308 655.109375 L 257 655.109375 Z M 257 575 "/>
</clipPath>
</defs>
<g id="surface1">
<g clip-path="url(#clip1)" clip-rule="nonzero">
<path style=" stroke:none;fill-rule:nonzero;fill:rgb(17.999268%,18.798828%,57.299805%);fill-opacity:1;" d="M 293.746094 100.84375 C 267.761719 87.222656 238.316406 79.539063 207.132813 79.539063 C 101.742188 79.539063 16.785156 162.542969 16.785156 270.777344 L 16.785156 501.855469 C 16.785156 501.855469 86.433594 489.628906 111.011719 527.242188 L 111.027344 444.859375 C 139.253906 461.785156 172.089844 471.484375 207.132813 471.484375 C 312.519531 471.484375 397.953125 383.75 397.953125 275.515625 L 397.953125 0.00390625 C 397.953125 0.00390625 386.003906 21.25 366.921875 28.835938 L 293.746094 100.84375 "/>
</g>
<path style=" stroke:none;fill-rule:nonzero;fill:rgb(92.498779%,30.198669%,16.899109%);fill-opacity:1;" d="M 284.757813 100.644531 C 258.03125 87.558594 227.765625 80.179688 195.703125 80.179688 C 87.351563 80.179688 0 159.917969 0 263.90625 L 0 525.3125 C 0 525.3125 9.34375 507.980469 48.21875 507.980469 C 48.21875 507.980469 96.867188 506.820313 96.867188 525.3125 L 96.898438 431.152344 C 125.914063 447.417969 159.675781 456.738281 195.703125 456.738281 C 304.054688 456.738281 391.894531 372.445313 391.894531 268.457031 L 391.894531 3.765625 C 391.894531 3.765625 371.730469 28.710938 338.683594 29.355469 C 338.683594 29.355469 284.769531 26.660156 284.769531 4.980469 L 284.757813 100.644531 "/>
<path style=" stroke:none;fill-rule:nonzero;fill:rgb(100%,100%,100%);fill-opacity:1;" d="M 285.707031 266.585938 C 285.707031 318.945313 243.261719 361.390625 190.898438 361.390625 C 138.535156 361.390625 96.089844 318.945313 96.089844 266.585938 C 96.089844 214.21875 138.535156 171.773438 190.898438 171.773438 C 243.261719 171.773438 285.707031 214.21875 285.707031 266.585938 "/>
<path style=" stroke:none;fill-rule:nonzero;fill:rgb(17.999268%,18.798828%,57.299805%);fill-opacity:1;" d="M 150.574219 352.414063 C 118.375 337.261719 96.089844 304.527344 96.089844 266.585938 C 96.089844 214.21875 138.535156 171.773438 190.898438 171.773438 C 213.308594 171.773438 233.898438 179.546875 250.128906 192.546875 L 246.613281 190.789063 C 235.34375 186.0625 222.96875 183.453125 209.980469 183.453125 C 157.617188 183.453125 115.167969 225.898438 115.167969 278.261719 C 115.167969 307.714844 128.597656 334.03125 149.667969 351.417969 L 150.574219 352.414063 "/>
<path style=" stroke:none;fill-rule:nonzero;fill:rgb(17.999268%,18.798828%,57.299805%);fill-opacity:1;" d="M 42.402344 651.285156 L 42.402344 653.363281 L 9.726563 653.363281 L 9.726563 651.285156 L 12.425781 651.285156 C 15.574219 651.285156 17.863281 650.367188 19.289063 648.527344 C 20.191406 647.328125 20.636719 644.441406 20.636719 639.863281 L 20.636719 590.597656 C 20.636719 586.734375 20.394531 584.1875 19.90625 582.949219 C 19.53125 582.015625 18.765625 581.203125 17.597656 580.53125 C 15.949219 579.632813 14.226563 579.179688 12.425781 579.179688 L 9.726563 579.179688 L 9.726563 577.101563 L 42.402344 577.101563 L 42.402344 579.179688 L 39.648438 579.179688 C 36.535156 579.179688 34.265625 580.097656 32.84375 581.9375 C 31.90625 583.136719 31.4375 586.023438 31.4375 590.597656 L 31.4375 639.863281 C 31.4375 643.730469 31.679688 646.277344 32.167969 647.519531 C 32.542969 648.453125 33.328125 649.257813 34.53125 649.933594 C 36.144531 650.832031 37.847656 651.285156 39.648438 651.285156 L 42.402344 651.285156 "/>
<path style=" stroke:none;fill-rule:nonzero;fill:rgb(17.999268%,18.798828%,57.299805%);fill-opacity:1;" d="M 68.949219 647.855469 C 73.710938 648.902344 77.703125 649.425781 80.929688 649.425781 C 89.628906 649.425781 96.847656 646.371094 102.585938 640.261719 C 108.320313 634.148438 111.191406 625.863281 111.191406 615.402344 C 111.191406 604.863281 108.320313 596.558594 102.585938 590.488281 C 96.847656 584.410156 89.480469 581.375 80.480469 581.375 C 77.105469 581.375 73.261719 581.917969 68.949219 583.003906 Z M 47.183594 653.363281 L 47.183594 651.285156 L 50.054688 651.285156 C 53.277344 651.285156 55.566406 650.253906 56.914063 648.191406 C 57.738281 646.957031 58.148438 644.179688 58.148438 639.863281 L 58.148438 590.597656 C 58.148438 585.835938 57.625 582.859375 56.578125 581.65625 C 55.117188 580.007813 52.941406 579.179688 50.054688 579.179688 L 47.183594 579.179688 L 47.183594 577.101563 L 78.230469 577.101563 C 89.628906 577.101563 98.300781 578.394531 104.246094 580.980469 C 110.183594 583.566406 114.96875 587.878906 118.585938 593.917969 C 122.203125 599.953125 124.011719 606.929688 124.011719 614.839844 C 124.011719 625.449219 120.785156 634.316406 114.339844 641.441406 C 107.101563 649.390625 96.078125 653.363281 81.265625 653.363281 L 47.183594 653.363281 "/>
<path style=" stroke:none;fill-rule:nonzero;fill:rgb(17.999268%,18.798828%,57.299805%);fill-opacity:1;" d="M 163.945313 651.285156 L 163.945313 653.363281 L 131.269531 653.363281 L 131.269531 651.285156 L 133.96875 651.285156 C 137.117188 651.285156 139.40625 650.367188 140.832031 648.527344 C 141.730469 647.328125 142.179688 644.441406 142.179688 639.863281 L 142.179688 590.597656 C 142.179688 586.734375 141.9375 584.1875 141.449219 582.949219 C 141.074219 582.015625 140.308594 581.203125 139.140625 580.53125 C 137.492188 579.632813 135.769531 579.179688 133.96875 579.179688 L 131.269531 579.179688 L 131.269531 577.101563 L 163.945313 577.101563 L 163.945313 579.179688 L 161.1875 579.179688 C 158.078125 579.179688 155.808594 580.097656 154.386719 581.9375 C 153.445313 583.136719 152.980469 586.023438 152.980469 590.597656 L 152.980469 639.863281 C 152.980469 643.730469 153.222656 646.277344 153.710938 647.519531 C 154.085938 648.453125 154.871094 649.257813 156.070313 649.933594 C 157.683594 650.832031 159.390625 651.285156 161.1875 651.285156 L 163.945313 651.285156 "/>
<path style=" stroke:none;fill-rule:nonzero;fill:rgb(17.999268%,18.798828%,57.299805%);fill-opacity:1;" d="M 165.238281 577.101563 L 185.933594 577.101563 L 232.5625 634.300781 L 232.5625 590.316406 C 232.5625 585.632813 232.035156 582.707031 230.984375 581.542969 C 229.597656 579.964844 227.402344 579.179688 224.40625 579.179688 L 221.761719 579.179688 L 221.761719 577.101563 L 248.308594 577.101563 L 248.308594 579.179688 L 245.609375 579.179688 C 242.382813 579.179688 240.09375 580.15625 238.746094 582.105469 C 237.917969 583.304688 237.507813 586.042969 237.507813 590.316406 L 237.507813 654.601563 L 235.484375 654.601563 L 185.203125 593.183594 L 185.203125 640.148438 C 185.203125 644.835938 185.710938 647.757813 186.71875 648.921875 C 188.144531 650.496094 190.339844 651.285156 193.304688 651.285156 L 196.003906 651.285156 L 196.003906 653.363281 L 169.453125 653.363281 L 169.453125 651.285156 L 172.097656 651.285156 C 175.359375 651.285156 177.664063 650.308594 179.015625 648.359375 C 179.839844 647.160156 180.253906 644.425781 180.253906 640.148438 L 180.253906 587.109375 C 178.039063 584.527344 176.363281 582.816406 175.21875 581.992188 C 174.074219 581.167969 172.398438 580.402344 170.1875 579.6875 C 169.097656 579.351563 167.449219 579.179688 165.238281 579.179688 L 165.238281 577.101563 "/>
<g clip-path="url(#clip2)" clip-rule="nonzero">
<path style=" stroke:none;fill-rule:nonzero;fill:rgb(17.999268%,18.798828%,57.299805%);fill-opacity:1;" d="M 302.753906 575.355469 L 302.753906 601.734375 L 300.667969 601.734375 C 299.996094 596.671875 298.785156 592.644531 297.042969 589.640625 C 295.296875 586.640625 292.816406 584.261719 289.589844 582.496094 C 286.363281 580.738281 283.03125 579.855469 279.578125 579.855469 C 275.679688 579.855469 272.453125 581.046875 269.902344 583.429688 C 267.355469 585.808594 266.082031 588.519531 266.082031 591.550781 C 266.082031 593.878906 266.886719 595.996094 268.5 597.910156 C 270.820313 600.722656 276.355469 604.472656 285.089844 609.160156 C 292.214844 612.984375 297.078125 615.917969 299.6875 617.960938 C 302.292969 620.003906 304.300781 622.410156 305.703125 625.1875 C 307.109375 627.964844 307.816406 630.867188 307.816406 633.902344 C 307.816406 639.679688 305.574219 644.65625 301.089844 648.835938 C 296.609375 653.019531 290.847656 655.109375 283.796875 655.109375 C 281.585938 655.109375 279.503906 654.941406 277.558594 654.601563 C 276.390625 654.414063 273.980469 653.734375 270.328125 652.550781 C 266.671875 651.367188 264.359375 650.777344 263.378906 650.777344 C 262.441406 650.777344 261.699219 651.058594 261.15625 651.621094 C 260.613281 652.183594 260.214844 653.347656 259.949219 655.109375 L 257.871094 655.109375 L 257.871094 628.953125 L 259.949219 628.953125 C 260.925781 634.433594 262.238281 638.527344 263.886719 641.246094 C 265.535156 643.964844 268.054688 646.226563 271.449219 648.019531 C 274.84375 649.820313 278.566406 650.71875 282.617188 650.71875 C 287.300781 650.71875 291.003906 649.484375 293.722656 647.011719 C 296.441406 644.535156 297.800781 641.609375 297.800781 638.234375 C 297.800781 636.363281 297.285156 634.46875 296.253906 632.554688 C 295.222656 630.644531 293.617188 628.863281 291.441406 627.210938 C 289.980469 626.085938 285.988281 623.699219 279.46875 620.039063 C 272.941406 616.386719 268.300781 613.472656 265.546875 611.296875 C 262.789063 609.121094 260.699219 606.722656 259.277344 604.097656 C 257.851563 601.472656 257.140625 598.582031 257.140625 595.4375 C 257.140625 589.960938 259.238281 585.246094 263.4375 581.289063 C 267.636719 577.332031 272.980469 575.355469 279.46875 575.355469 C 283.519531 575.355469 287.808594 576.351563 292.34375 578.335938 C 294.445313 579.277344 295.925781 579.742188 296.789063 579.742188 C 297.765625 579.742188 298.5625 579.453125 299.179688 578.871094 C 299.796875 578.289063 300.292969 577.121094 300.667969 575.355469 L 302.753906 575.355469 "/>
</g>
<path style=" stroke:none;fill-rule:nonzero;fill:rgb(17.999268%,18.798828%,57.299805%);fill-opacity:1;" d="M 365.121094 623.667969 L 352.1875 592.847656 L 338.917969 623.667969 Z M 366.699219 627.832031 L 337.171875 627.832031 L 331.996094 639.863281 C 330.722656 642.828125 330.085938 645.042969 330.085938 646.503906 C 330.085938 647.667969 330.636719 648.6875 331.746094 649.570313 C 332.847656 650.445313 335.238281 651.019531 338.917969 651.285156 L 338.917969 653.363281 L 314.898438 653.363281 L 314.898438 651.285156 C 318.085938 650.71875 320.148438 649.988281 321.085938 649.089844 C 323 647.289063 325.113281 643.632813 327.441406 638.125 L 354.269531 575.355469 L 356.234375 575.355469 L 382.785156 638.800781 C 384.921875 643.898438 386.863281 647.203125 388.605469 648.726563 C 390.347656 650.242188 392.777344 651.097656 395.886719 651.285156 L 395.886719 653.363281 L 365.796875 653.363281 L 365.796875 651.285156 C 368.835938 651.136719 370.890625 650.628906 371.960938 649.765625 C 373.027344 648.902344 373.5625 647.855469 373.5625 646.617188 C 373.5625 644.96875 372.8125 642.359375 371.3125 638.800781 L 366.699219 627.832031 "/>
</g>
</svg>
