<?xml version="1.0" encoding="utf-8"?>
<!-- Generator: Adobe Illustrator 26.0.3, SVG Export Plug-In . SVG Version: 6.00 Build 0)  -->
<svg version="1.0" id="Layer_1" xmlns="http://www.w3.org/2000/svg" xmlns:xlink="http://www.w3.org/1999/xlink" x="0px" y="0px"
	 viewBox="0 0 886.3 691.5" style="enable-background:new 0 0 886.3 691.5;" xml:space="preserve">
<style type="text/css">
	.st0{fill:#006BA8;}
</style>
<path id="Fill-2" d="M307.6,309.2L307.6,309.2l-6.5,73.1h-19.5L307.6,309.2z M213.8,436.6h49l8.6-24.6h26l-1.4,24.6h49l0.7-156.3
	h-65.5L213.8,436.6z"/>
<polyline id="Fill-3" points="383.3,280.3 445.3,280.3 451.8,375.1 452.5,375.1 472.7,280.3 513.1,280.3 480,436.6 418.6,436.6 
	410.7,344.7 391.2,436.6 350.1,436.6 383.3,280.3 "/>
<path id="Fill-4" d="M583.8,323.7c0.7-5.1,1.4-9.4,0.7-12.3s-3.6-4.3-8.7-4.3c-5,0-9.4,5.8-10.8,11.6c-6.5,29,64.2,12.3,51.9,68.8
	c-8.7,41.2-36.1,54.3-66.4,54.3c-31,0-61.3-5.1-49.8-49.9h46.9c-0.7,5.8-1.4,10.9-0.7,14.5c0.7,3.6,2.2,5.8,6.5,5.8
	c6.5,0,12.3-5.8,13.7-13c7.2-34.7-63.5-12.3-51.2-69.5c7.9-37.6,30.3-53.6,66.4-53.6c45.4,0,50.5,21.7,45.4,47.8L583.8,323.7"/>
<polyline id="Fill-5" points="653.8,280.3 701.4,280.3 668.2,436.6 619.9,436.6 653.8,280.3 "/>
<path id="Fill-6" class="st0" d="M123.6,397.5c0-131.7,173.8-238.8,388.8-238.8c114.7,0,217.8,30.4,289.2,78.9
	C731,174.6,612,132.6,477.8,132.6c-217.1,0-393.1,107.8-393.1,241c0,74.5,55.5,141.1,141.4,185.2
	C162.6,516.9,123.6,459.8,123.6,397.5"/>
</svg>
