<?xml version="1.0" encoding="UTF-8"?>
<svg id="Layer_1" data-name="Layer 1" xmlns="http://www.w3.org/2000/svg" viewBox="0 0 717 426.24">
  <defs>
    <style>
      .cls-1 {
        fill: #fff;
      }

      .cls-2 {
        fill: #006ba8;
      }
    </style>
  </defs>
  <path id="Fill-2" class="cls-1" d="m222.89,176.58h0l-6.49,73.08h-19.48l25.97-73.08Zm-93.77,127.36h49l8.65-24.61h26l-1.44,24.61h49l.72-156.31h-65.55l-66.38,156.31Z"/>
  <polyline id="Fill-3" class="cls-1" points="298.63 147.63 360.66 147.63 367.15 242.43 367.88 242.43 388.07 147.63 428.46 147.63 395.29 303.94 333.98 303.94 326.04 212.04 306.56 303.94 265.45 303.94 298.63 147.63"/>
  <path id="Fill-4" class="cls-1" d="m499.16,191.05c.72-5.07,1.44-9.41.72-12.31s-3.61-4.34-8.65-4.34-9.39,5.79-10.83,11.58c-6.49,28.95,64.2,12.3,51.94,68.75-8.65,41.25-36.07,54.27-66.36,54.27s-61.32-5.06-49.78-49.93h46.89c-.72,5.79-1.44,10.86-.72,14.48s2.16,5.78,6.49,5.78c6.49,0,12.27-5.78,13.71-13,7.21-34.74-63.48-12.3-51.22-69.47,7.94-37.64,30.3-53.56,66.37-53.56,45.44,0,50.49,21.71,45.44,47.77h-44"/>
  <polyline id="Fill-5" class="cls-1" points="569.13 147.63 616.73 147.63 583.55 303.94 535.22 303.94 569.13 147.63"/>
  <path id="Fill-6" class="cls-2" d="m38.95,264.86c0-131.71,173.84-238.82,388.8-238.82,114.69,0,217.84,30.4,289.25,78.89C646.3,41.93,527.29,0,393.12,0,176,0,0,107.82,0,241c0,74.52,55.5,141.12,141.38,185.24-63.48-41.97-102.43-99.12-102.43-161.38"/>
</svg>