<svg xmlns="http://www.w3.org/2000/svg" version="1.1" xmlns:xlink="http://www.w3.org/1999/xlink" xmlns:svgjs="http://svgjs.dev/svgjs" width="1440" height="560" preserveAspectRatio="none" viewBox="0 0 1440 560"><g mask="url(&quot;#SvgjsMask1877&quot;)" fill="none"><rect width="1440" height="560" x="0" y="0" fill="url(&quot;#SvgjsLinearGradient1878&quot;)"></rect><path d="M-70.62 397.66L-70.62 397.66" stroke="#132e65" stroke-width="1.5"></path><path d="M-70.62 397.66L71.63 344.44" stroke="#132e65" stroke-width="1.5"></path><path d="M-70.62 397.66L-66.1 551.82" stroke="#132e65" stroke-width="1.5"></path><path d="M-70.62 397.66L-41.9 650.83" stroke="#132e65" stroke-width="1.5"></path><path d="M-70.62 397.66L223.04 502.23" stroke="#132e65" stroke-width="1.5"></path><path d="M-66.1 551.82L-66.1 551.82" stroke="#132e65" stroke-width="1.5"></path><path d="M-66.1 551.82L-41.9 650.83" stroke="#132e65" stroke-width="1.5"></path><path d="M-66.1 551.82L71.63 344.44" stroke="#132e65" stroke-width="1.5"></path><path d="M-66.1 551.82L223.04 502.23" stroke="#132e65" stroke-width="1.5"></path><path d="M-66.1 551.82L237.42 342.11" stroke="#132e65" stroke-width="1.5"></path><path d="M-66.1 551.82L340.33 503.69" stroke="#132e65" stroke-width="1.5"></path><path d="M-41.9 650.83L-41.9 650.83" stroke="#132e65" stroke-width="1.5"></path><path d="M-41.9 650.83L223.04 502.23" stroke="#132e65" stroke-width="1.5"></path><path d="M-41.9 650.83L71.63 344.44" stroke="#132e65" stroke-width="1.5"></path><path d="M-41.9 650.83L338.97 706.32" stroke="#132e65" stroke-width="1.5"></path><path d="M71.63 344.44L71.63 344.44" stroke="#132e65" stroke-width="1.5"></path><path d="M71.63 344.44L237.42 342.11" stroke="#132e65" stroke-width="1.5"></path><path d="M237.42 342.11L237.42 342.11" stroke="#132e65" stroke-width="1.5"></path><path d="M237.42 342.11L357.77 410.76" stroke="#132e65" stroke-width="1.5"></path><path d="M237.42 342.11L223.04 502.23" stroke="#132e65" stroke-width="1.5"></path><path d="M223.04 502.23L223.04 502.23" stroke="#132e65" stroke-width="1.5"></path><path d="M223.04 502.23L340.33 503.69" stroke="#132e65" stroke-width="1.5"></path><path d="M223.04 502.23L357.77 410.76" stroke="#132e65" stroke-width="1.5"></path><path d="M223.04 502.23L71.63 344.44" stroke="#132e65" stroke-width="1.5"></path><path d="M357.77 410.76L357.77 410.76" stroke="#132e65" stroke-width="1.5"></path><path d="M357.77 410.76L340.33 503.69" stroke="#132e65" stroke-width="1.5"></path><path d="M357.77 410.76L554.99 371.9" stroke="#132e65" stroke-width="1.5"></path><path d="M357.77 410.76L71.63 344.44" stroke="#132e65" stroke-width="1.5"></path><path d="M340.33 503.69L340.33 503.69" stroke="#132e65" stroke-width="1.5"></path><path d="M340.33 503.69L237.42 342.11" stroke="#132e65" stroke-width="1.5"></path><path d="M340.33 503.69L338.97 706.32" stroke="#132e65" stroke-width="1.5"></path><path d="M338.97 706.32L338.97 706.32" stroke="#132e65" stroke-width="1.5"></path><path d="M338.97 706.32L555.78 672.49" stroke="#132e65" stroke-width="1.5"></path><path d="M338.97 706.32L223.04 502.23" stroke="#132e65" stroke-width="1.5"></path><path d="M554.99 371.9L554.99 371.9" stroke="#132e65" stroke-width="1.5"></path><path d="M554.99 371.9L693.66 357.74" stroke="#132e65" stroke-width="1.5"></path><path d="M554.99 371.9L645.21 506.98" stroke="#132e65" stroke-width="1.5"></path><path d="M554.99 371.9L702.01 214.99" stroke="#132e65" stroke-width="1.5"></path><path d="M554.99 371.9L340.33 503.69" stroke="#132e65" stroke-width="1.5"></path><path d="M555.78 672.49L555.78 672.49" stroke="#132e65" stroke-width="1.5"></path><path d="M555.78 672.49L693.3 644.44" stroke="#132e65" stroke-width="1.5"></path><path d="M555.78 672.49L645.21 506.98" stroke="#132e65" stroke-width="1.5"></path><path d="M555.78 672.49L807.71 653.65" stroke="#132e65" stroke-width="1.5"></path><path d="M555.78 672.49L340.33 503.69" stroke="#132e65" stroke-width="1.5"></path><path d="M555.78 672.49L554.99 371.9" stroke="#132e65" stroke-width="1.5"></path><path d="M702.01 214.99L702.01 214.99" stroke="#132e65" stroke-width="1.5"></path><path d="M702.01 214.99L824.83 260.64" stroke="#132e65" stroke-width="1.5"></path><path d="M702.01 214.99L693.66 357.74" stroke="#132e65" stroke-width="1.5"></path><path d="M702.01 214.99L938.4 361.36" stroke="#132e65" stroke-width="1.5"></path><path d="M702.01 214.99L645.21 506.98" stroke="#132e65" stroke-width="1.5"></path><path d="M702.01 214.99L1006.84 200.77" stroke="#132e65" stroke-width="1.5"></path><path d="M693.66 357.74L693.66 357.74" stroke="#132e65" stroke-width="1.5"></path><path d="M693.66 357.74L645.21 506.98" stroke="#132e65" stroke-width="1.5"></path><path d="M693.66 357.74L824.83 260.64" stroke="#132e65" stroke-width="1.5"></path><path d="M693.66 357.74L834.74 491.63" stroke="#132e65" stroke-width="1.5"></path><path d="M693.66 357.74L938.4 361.36" stroke="#132e65" stroke-width="1.5"></path><path d="M645.21 506.98L645.21 506.98" stroke="#132e65" stroke-width="1.5"></path><path d="M645.21 506.98L693.3 644.44" stroke="#132e65" stroke-width="1.5"></path><path d="M693.3 644.44L693.3 644.44" stroke="#132e65" stroke-width="1.5"></path><path d="M693.3 644.44L807.71 653.65" stroke="#132e65" stroke-width="1.5"></path><path d="M824.83 260.64L824.83 260.64" stroke="#132e65" stroke-width="1.5"></path><path d="M824.83 260.64L938.4 361.36" stroke="#132e65" stroke-width="1.5"></path><path d="M824.83 260.64L1006.84 200.77" stroke="#132e65" stroke-width="1.5"></path><path d="M824.83 260.64L834.74 491.63" stroke="#132e65" stroke-width="1.5"></path><path d="M834.74 491.63L834.74 491.63" stroke="#132e65" stroke-width="1.5"></path><path d="M834.74 491.63L807.71 653.65" stroke="#132e65" stroke-width="1.5"></path><path d="M834.74 491.63L938.4 361.36" stroke="#132e65" stroke-width="1.5"></path><path d="M834.74 491.63L645.21 506.98" stroke="#132e65" stroke-width="1.5"></path><path d="M807.71 653.65L807.71 653.65" stroke="#132e65" stroke-width="1.5"></path><path d="M807.71 653.65L994.37 703.77" stroke="#132e65" stroke-width="1.5"></path><path d="M807.71 653.65L645.21 506.98" stroke="#132e65" stroke-width="1.5"></path><path d="M971.75 -46.37L971.75 -46.37" stroke="#132e65" stroke-width="1.5"></path><path d="M971.75 -46.37L971.77 56.23" stroke="#132e65" stroke-width="1.5"></path><path d="M971.75 -46.37L1106.44 -65.42" stroke="#132e65" stroke-width="1.5"></path><path d="M971.75 -46.37L1094.63 57.91" stroke="#132e65" stroke-width="1.5"></path><path d="M971.77 56.23L971.77 56.23" stroke="#132e65" stroke-width="1.5"></path><path d="M971.77 56.23L1094.63 57.91" stroke="#132e65" stroke-width="1.5"></path><path d="M1006.84 200.77L1006.84 200.77" stroke="#132e65" stroke-width="1.5"></path><path d="M1006.84 200.77L971.77 56.23" stroke="#132e65" stroke-width="1.5"></path><path d="M1006.84 200.77L1153.92 230.64" stroke="#132e65" stroke-width="1.5"></path><path d="M1006.84 200.77L1094.63 57.91" stroke="#132e65" stroke-width="1.5"></path><path d="M1006.84 200.77L938.4 361.36" stroke="#132e65" stroke-width="1.5"></path><path d="M1006.84 200.77L1141.41 386.07" stroke="#132e65" stroke-width="1.5"></path><path d="M938.4 361.36L938.4 361.36" stroke="#132e65" stroke-width="1.5"></path><path d="M994.37 703.77L994.37 703.77" stroke="#132e65" stroke-width="1.5"></path><path d="M994.37 703.77L1116.53 637.64" stroke="#132e65" stroke-width="1.5"></path><path d="M1106.44 -65.42L1106.44 -65.42" stroke="#132e65" stroke-width="1.5"></path><path d="M1106.44 -65.42L1094.63 57.91" stroke="#132e65" stroke-width="1.5"></path><path d="M1106.44 -65.42L1279.33 -109.71" stroke="#132e65" stroke-width="1.5"></path><path d="M1094.63 57.91L1094.63 57.91" stroke="#132e65" stroke-width="1.5"></path><path d="M1153.92 230.64L1153.92 230.64" stroke="#132e65" stroke-width="1.5"></path><path d="M1153.92 230.64L1252.4 201.11" stroke="#132e65" stroke-width="1.5"></path><path d="M1141.41 386.07L1141.41 386.07" stroke="#132e65" stroke-width="1.5"></path><path d="M1141.41 386.07L1149.78 493.86" stroke="#132e65" stroke-width="1.5"></path><path d="M1141.41 386.07L1153.92 230.64" stroke="#132e65" stroke-width="1.5"></path><path d="M1149.78 493.86L1149.78 493.86" stroke="#132e65" stroke-width="1.5"></path><path d="M1149.78 493.86L1284.74 487.92" stroke="#132e65" stroke-width="1.5"></path><path d="M1149.78 493.86L1116.53 637.64" stroke="#132e65" stroke-width="1.5"></path><path d="M1116.53 637.64L1116.53 637.64" stroke="#132e65" stroke-width="1.5"></path><path d="M1116.53 637.64L1284.74 487.92" stroke="#132e65" stroke-width="1.5"></path><path d="M1116.53 637.64L1141.41 386.07" stroke="#132e65" stroke-width="1.5"></path><path d="M1116.53 637.64L1420.38 668.46" stroke="#132e65" stroke-width="1.5"></path><path d="M1279.33 -109.71L1279.33 -109.71" stroke="#132e65" stroke-width="1.5"></path><path d="M1279.33 -109.71L1388.17 -70.94" stroke="#132e65" stroke-width="1.5"></path><path d="M1279.33 -109.71L1312.18 50.26" stroke="#132e65" stroke-width="1.5"></path><path d="M1279.33 -109.71L1452.85 66.78" stroke="#132e65" stroke-width="1.5"></path><path d="M1279.33 -109.71L1094.63 57.91" stroke="#132e65" stroke-width="1.5"></path><path d="M1312.18 50.26L1312.18 50.26" stroke="#132e65" stroke-width="1.5"></path><path d="M1312.18 50.26L1452.85 66.78" stroke="#132e65" stroke-width="1.5"></path><path d="M1312.18 50.26L1388.17 -70.94" stroke="#132e65" stroke-width="1.5"></path><path d="M1312.18 50.26L1252.4 201.11" stroke="#132e65" stroke-width="1.5"></path><path d="M1312.18 50.26L1094.63 57.91" stroke="#132e65" stroke-width="1.5"></path><path d="M1252.4 201.11L1252.4 201.11" stroke="#132e65" stroke-width="1.5"></path><path d="M1252.4 201.11L1295.69 343.58" stroke="#132e65" stroke-width="1.5"></path><path d="M1252.4 201.11L1094.63 57.91" stroke="#132e65" stroke-width="1.5"></path><path d="M1252.4 201.11L1461.64 248.24" stroke="#132e65" stroke-width="1.5"></path><path d="M1252.4 201.11L1141.41 386.07" stroke="#132e65" stroke-width="1.5"></path><path d="M1295.69 343.58L1295.69 343.58" stroke="#132e65" stroke-width="1.5"></path><path d="M1295.69 343.58L1284.74 487.92" stroke="#132e65" stroke-width="1.5"></path><path d="M1295.69 343.58L1448.9 356.94" stroke="#132e65" stroke-width="1.5"></path><path d="M1295.69 343.58L1141.41 386.07" stroke="#132e65" stroke-width="1.5"></path><path d="M1295.69 343.58L1153.92 230.64" stroke="#132e65" stroke-width="1.5"></path><path d="M1295.69 343.58L1461.64 248.24" stroke="#132e65" stroke-width="1.5"></path><path d="M1284.74 487.92L1284.74 487.92" stroke="#132e65" stroke-width="1.5"></path><path d="M1284.74 487.92L1407.55 502.25" stroke="#132e65" stroke-width="1.5"></path><path d="M1388.17 -70.94L1388.17 -70.94" stroke="#132e65" stroke-width="1.5"></path><path d="M1452.85 66.78L1452.85 66.78" stroke="#132e65" stroke-width="1.5"></path><path d="M1452.85 66.78L1601.17 89.67" stroke="#132e65" stroke-width="1.5"></path><path d="M1461.64 248.24L1461.64 248.24" stroke="#132e65" stroke-width="1.5"></path><path d="M1461.64 248.24L1539.7 252.2" stroke="#132e65" stroke-width="1.5"></path><path d="M1461.64 248.24L1448.9 356.94" stroke="#132e65" stroke-width="1.5"></path><path d="M1461.64 248.24L1452.85 66.78" stroke="#132e65" stroke-width="1.5"></path><path d="M1448.9 356.94L1448.9 356.94" stroke="#132e65" stroke-width="1.5"></path><path d="M1407.55 502.25L1407.55 502.25" stroke="#132e65" stroke-width="1.5"></path><path d="M1407.55 502.25L1448.9 356.94" stroke="#132e65" stroke-width="1.5"></path><path d="M1407.55 502.25L1420.38 668.46" stroke="#132e65" stroke-width="1.5"></path><path d="M1407.55 502.25L1581.42 554.62" stroke="#132e65" stroke-width="1.5"></path><path d="M1407.55 502.25L1295.69 343.58" stroke="#132e65" stroke-width="1.5"></path><path d="M1407.55 502.25L1606.81 397.16" stroke="#132e65" stroke-width="1.5"></path><path d="M1420.38 668.46L1420.38 668.46" stroke="#132e65" stroke-width="1.5"></path><path d="M1420.38 668.46L1598.55 659.48" stroke="#132e65" stroke-width="1.5"></path><path d="M1420.38 668.46L1581.42 554.62" stroke="#132e65" stroke-width="1.5"></path><path d="M1420.38 668.46L1284.74 487.92" stroke="#132e65" stroke-width="1.5"></path><path d="M1420.38 668.46L1448.9 356.94" stroke="#132e65" stroke-width="1.5"></path><path d="M1576.13 -100.77L1576.13 -100.77" stroke="#132e65" stroke-width="1.5"></path><path d="M1576.13 -100.77L1388.17 -70.94" stroke="#132e65" stroke-width="1.5"></path><path d="M1576.13 -100.77L1601.17 89.67" stroke="#132e65" stroke-width="1.5"></path><path d="M1576.13 -100.77L1452.85 66.78" stroke="#132e65" stroke-width="1.5"></path><path d="M1576.13 -100.77L1279.33 -109.71" stroke="#132e65" stroke-width="1.5"></path><path d="M1601.17 89.67L1601.17 89.67" stroke="#132e65" stroke-width="1.5"></path><path d="M1601.17 89.67L1539.7 252.2" stroke="#132e65" stroke-width="1.5"></path><path d="M1601.17 89.67L1461.64 248.24" stroke="#132e65" stroke-width="1.5"></path><path d="M1539.7 252.2L1539.7 252.2" stroke="#132e65" stroke-width="1.5"></path><path d="M1539.7 252.2L1448.9 356.94" stroke="#132e65" stroke-width="1.5"></path><path d="M1606.81 397.16L1606.81 397.16" stroke="#132e65" stroke-width="1.5"></path><path d="M1606.81 397.16L1581.42 554.62" stroke="#132e65" stroke-width="1.5"></path><path d="M1606.81 397.16L1539.7 252.2" stroke="#132e65" stroke-width="1.5"></path><path d="M1606.81 397.16L1448.9 356.94" stroke="#132e65" stroke-width="1.5"></path><path d="M1606.81 397.16L1461.64 248.24" stroke="#132e65" stroke-width="1.5"></path><path d="M1581.42 554.62L1581.42 554.62" stroke="#132e65" stroke-width="1.5"></path><path d="M1581.42 554.62L1598.55 659.48" stroke="#132e65" stroke-width="1.5"></path><path d="M1598.55 659.48L1598.55 659.48" stroke="#132e65" stroke-width="1.5"></path><path d="M1598.55 659.48L1407.55 502.25" stroke="#132e65" stroke-width="1.5"></path><path d="M1598.55 659.48L1606.81 397.16" stroke="#132e65" stroke-width="1.5"></path><circle r="5" cx="-70.62" cy="397.66" fill="#132e65"></circle><circle r="5" cx="-66.1" cy="551.82" fill="#132e65"></circle><circle r="5" cx="-41.9" cy="650.83" fill="#132e65"></circle><circle r="5" cx="71.63" cy="344.44" fill="#132e65"></circle><circle r="5" cx="237.42" cy="342.11" fill="#132e65"></circle><circle r="5" cx="223.04" cy="502.23" fill="#132e65"></circle><circle r="5" cx="357.77" cy="410.76" fill="#132e65"></circle><circle r="5" cx="340.33" cy="503.69" fill="#132e65"></circle><circle r="5" cx="338.97" cy="706.32" fill="#132e65"></circle><circle r="5" cx="554.99" cy="371.9" fill="#132e65"></circle><circle r="5" cx="555.78" cy="672.49" fill="#132e65"></circle><circle r="5" cx="702.01" cy="214.99" fill="#132e65"></circle><circle r="5" cx="693.66" cy="357.74" fill="#132e65"></circle><circle r="5" cx="645.21" cy="506.98" fill="#132e65"></circle><circle r="5" cx="693.3" cy="644.44" fill="#132e65"></circle><circle r="5" cx="824.83" cy="260.64" fill="#132e65"></circle><circle r="5" cx="834.74" cy="491.63" fill="#132e65"></circle><circle r="5" cx="807.71" cy="653.65" fill="#132e65"></circle><circle r="5" cx="971.75" cy="-46.37" fill="#132e65"></circle><circle r="5" cx="971.77" cy="56.23" fill="#132e65"></circle><circle r="5" cx="1006.84" cy="200.77" fill="#132e65"></circle><circle r="5" cx="938.4" cy="361.36" fill="#132e65"></circle><circle r="5" cx="994.37" cy="703.77" fill="#132e65"></circle><circle r="5" cx="1106.44" cy="-65.42" fill="#132e65"></circle><circle r="5" cx="1094.63" cy="57.91" fill="#132e65"></circle><circle r="5" cx="1153.92" cy="230.64" fill="#132e65"></circle><circle r="5" cx="1141.41" cy="386.07" fill="#132e65"></circle><circle r="5" cx="1149.78" cy="493.86" fill="#132e65"></circle><circle r="5" cx="1116.53" cy="637.64" fill="#132e65"></circle><circle r="5" cx="1279.33" cy="-109.71" fill="#132e65"></circle><circle r="5" cx="1312.18" cy="50.26" fill="#132e65"></circle><circle r="5" cx="1252.4" cy="201.11" fill="#132e65"></circle><circle r="5" cx="1295.69" cy="343.58" fill="#132e65"></circle><circle r="5" cx="1284.74" cy="487.92" fill="#132e65"></circle><circle r="5" cx="1388.17" cy="-70.94" fill="#132e65"></circle><circle r="5" cx="1452.85" cy="66.78" fill="#132e65"></circle><circle r="5" cx="1461.64" cy="248.24" fill="#132e65"></circle><circle r="5" cx="1448.9" cy="356.94" fill="#132e65"></circle><circle r="5" cx="1407.55" cy="502.25" fill="#132e65"></circle><circle r="5" cx="1420.38" cy="668.46" fill="#132e65"></circle><circle r="5" cx="1576.13" cy="-100.77" fill="#132e65"></circle><circle r="5" cx="1601.17" cy="89.67" fill="#132e65"></circle><circle r="5" cx="1539.7" cy="252.2" fill="#132e65"></circle><circle r="5" cx="1606.81" cy="397.16" fill="#132e65"></circle><circle r="5" cx="1581.42" cy="554.62" fill="#132e65"></circle><circle r="5" cx="1598.55" cy="659.48" fill="#132e65"></circle><path d="M-74.16 703.84L-74.16 703.84" stroke="hsl(228.5, 77.2%, 51.5%)" stroke-width="1.5"></path><path d="M-74.16 703.84L86.97 656.01" stroke="hsl(228.5, 77.2%, 51.5%)" stroke-width="1.5"></path><path d="M-74.16 703.84L-109.63 514.37" stroke="hsl(228.5, 77.2%, 51.5%)" stroke-width="1.5"></path><path d="M-74.16 703.84L62.97 539.73" stroke="hsl(228.5, 77.2%, 51.5%)" stroke-width="1.5"></path><path d="M-74.16 703.84L239.24 708.23" stroke="hsl(228.5, 77.2%, 51.5%)" stroke-width="1.5"></path><path d="M-74.16 703.84L260.8 517.75" stroke="hsl(228.5, 77.2%, 51.5%)" stroke-width="1.5"></path><path d="M260.8 517.75L260.8 517.75" stroke="hsl(228.5, 77.2%, 51.5%)" stroke-width="1.5"></path><path d="M260.8 517.75L406.07 502.63" stroke="hsl(228.5, 77.2%, 51.5%)" stroke-width="1.5"></path><path d="M260.8 517.75L239.24 708.23" stroke="hsl(228.5, 77.2%, 51.5%)" stroke-width="1.5"></path><path d="M260.8 517.75L62.97 539.73" stroke="hsl(228.5, 77.2%, 51.5%)" stroke-width="1.5"></path><path d="M260.8 517.75L365.51 693.58" stroke="hsl(228.5, 77.2%, 51.5%)" stroke-width="1.5"></path><path d="M260.8 517.75L86.97 656.01" stroke="hsl(228.5, 77.2%, 51.5%)" stroke-width="1.5"></path><path d="M406.07 502.63L406.07 502.63" stroke="hsl(228.5, 77.2%, 51.5%)" stroke-width="1.5"></path><path d="M406.07 502.63L496.81 556.39" stroke="hsl(228.5, 77.2%, 51.5%)" stroke-width="1.5"></path><path d="M406.07 502.63L365.51 693.58" stroke="hsl(228.5, 77.2%, 51.5%)" stroke-width="1.5"></path><path d="M406.07 502.63L507.78 700" stroke="hsl(228.5, 77.2%, 51.5%)" stroke-width="1.5"></path><path d="M406.07 502.63L639.16 559.18" stroke="hsl(228.5, 77.2%, 51.5%)" stroke-width="1.5"></path><path d="M406.07 502.63L239.24 708.23" stroke="hsl(228.5, 77.2%, 51.5%)" stroke-width="1.5"></path><path d="M959.66 367.98L959.66 367.98" stroke="hsl(228.5, 77.2%, 51.5%)" stroke-width="1.5"></path><path d="M959.66 367.98L974.56 243.06" stroke="hsl(228.5, 77.2%, 51.5%)" stroke-width="1.5"></path><path d="M959.66 367.98L1096.78 396.38" stroke="hsl(228.5, 77.2%, 51.5%)" stroke-width="1.5"></path><path d="M959.66 367.98L798.7 344.3" stroke="hsl(228.5, 77.2%, 51.5%)" stroke-width="1.5"></path><path d="M959.66 367.98L1093.5 236.11" stroke="hsl(228.5, 77.2%, 51.5%)" stroke-width="1.5"></path><path d="M959.66 367.98L1001.48 559.84" stroke="hsl(228.5, 77.2%, 51.5%)" stroke-width="1.5"></path><path d="M959.66 367.98L1094.42 529.85" stroke="hsl(228.5, 77.2%, 51.5%)" stroke-width="1.5"></path><path d="M1094.42 529.85L1094.42 529.85" stroke="hsl(228.5, 77.2%, 51.5%)" stroke-width="1.5"></path><path d="M1094.42 529.85L1001.48 559.84" stroke="hsl(228.5, 77.2%, 51.5%)" stroke-width="1.5"></path><path d="M1094.42 529.85L1096.78 396.38" stroke="hsl(228.5, 77.2%, 51.5%)" stroke-width="1.5"></path><path d="M1094.42 529.85L1156.93 668.02" stroke="hsl(228.5, 77.2%, 51.5%)" stroke-width="1.5"></path><path d="M1156.93 668.02L1156.93 668.02" stroke="hsl(228.5, 77.2%, 51.5%)" stroke-width="1.5"></path><path d="M1156.93 668.02L977.03 691.85" stroke="hsl(228.5, 77.2%, 51.5%)" stroke-width="1.5"></path><path d="M1156.93 668.02L1001.48 559.84" stroke="hsl(228.5, 77.2%, 51.5%)" stroke-width="1.5"></path><path d="M1156.93 668.02L1301.61 501.54" stroke="hsl(228.5, 77.2%, 51.5%)" stroke-width="1.5"></path><path d="M1156.93 668.02L1096.78 396.38" stroke="hsl(228.5, 77.2%, 51.5%)" stroke-width="1.5"></path><path d="M1421.06 93.46L1421.06 93.46" stroke="hsl(228.5, 77.2%, 51.5%)" stroke-width="1.5"></path><path d="M1421.06 93.46L1414.14 220.25" stroke="hsl(228.5, 77.2%, 51.5%)" stroke-width="1.5"></path><path d="M1421.06 93.46L1546.98 69.6" stroke="hsl(228.5, 77.2%, 51.5%)" stroke-width="1.5"></path><path d="M1446.51 655.49L1446.51 655.49" stroke="hsl(228.5, 77.2%, 51.5%)" stroke-width="1.5"></path><path d="M1446.51 655.49L1456.47 543.77" stroke="hsl(228.5, 77.2%, 51.5%)" stroke-width="1.5"></path><path d="M1446.51 655.49L1588.84 697" stroke="hsl(228.5, 77.2%, 51.5%)" stroke-width="1.5"></path><path d="M1446.51 655.49L1562.94 535.67" stroke="hsl(228.5, 77.2%, 51.5%)" stroke-width="1.5"></path><path d="M1446.51 655.49L1301.61 501.54" stroke="hsl(228.5, 77.2%, 51.5%)" stroke-width="1.5"></path><path d="M1446.51 655.49L1156.93 668.02" stroke="hsl(228.5, 77.2%, 51.5%)" stroke-width="1.5"></path><path d="M1558.44 245.68L1558.44 245.68" stroke="hsl(228.5, 77.2%, 51.5%)" stroke-width="1.5"></path><path d="M1558.44 245.68L1599.64 384.68" stroke="hsl(228.5, 77.2%, 51.5%)" stroke-width="1.5"></path><path d="M1558.44 245.68L1414.14 220.25" stroke="hsl(228.5, 77.2%, 51.5%)" stroke-width="1.5"></path><path d="M1558.44 245.68L1442.1 358.57" stroke="hsl(228.5, 77.2%, 51.5%)" stroke-width="1.5"></path><path d="M1558.44 245.68L1546.98 69.6" stroke="hsl(228.5, 77.2%, 51.5%)" stroke-width="1.5"></path><path d="M1558.44 245.68L1421.06 93.46" stroke="hsl(228.5, 77.2%, 51.5%)" stroke-width="1.5"></path><path d="M-109.63 514.37L-109.63 514.37" stroke="hsl(228.5, 77.2%, 51.5%)" stroke-width="1.5"></path><path d="M-109.63 514.37L62.97 539.73" stroke="hsl(228.5, 77.2%, 51.5%)" stroke-width="1.5"></path><path d="M62.97 539.73L62.97 539.73" stroke="hsl(228.5, 77.2%, 51.5%)" stroke-width="1.5"></path><path d="M62.97 539.73L86.97 656.01" stroke="hsl(228.5, 77.2%, 51.5%)" stroke-width="1.5"></path><path d="M86.97 656.01L86.97 656.01" stroke="hsl(228.5, 77.2%, 51.5%)" stroke-width="1.5"></path><path d="M86.97 656.01L239.24 708.23" stroke="hsl(228.5, 77.2%, 51.5%)" stroke-width="1.5"></path><path d="M86.97 656.01L-109.63 514.37" stroke="hsl(228.5, 77.2%, 51.5%)" stroke-width="1.5"></path><path d="M86.97 656.01L365.51 693.58" stroke="hsl(228.5, 77.2%, 51.5%)" stroke-width="1.5"></path><path d="M239.24 708.23L239.24 708.23" stroke="hsl(228.5, 77.2%, 51.5%)" stroke-width="1.5"></path><path d="M239.24 708.23L365.51 693.58" stroke="hsl(228.5, 77.2%, 51.5%)" stroke-width="1.5"></path><path d="M365.51 693.58L365.51 693.58" stroke="hsl(228.5, 77.2%, 51.5%)" stroke-width="1.5"></path><path d="M365.51 693.58L507.78 700" stroke="hsl(228.5, 77.2%, 51.5%)" stroke-width="1.5"></path><path d="M496.81 556.39L496.81 556.39" stroke="hsl(228.5, 77.2%, 51.5%)" stroke-width="1.5"></path><path d="M496.81 556.39L639.16 559.18" stroke="hsl(228.5, 77.2%, 51.5%)" stroke-width="1.5"></path><path d="M496.81 556.39L507.78 700" stroke="hsl(228.5, 77.2%, 51.5%)" stroke-width="1.5"></path><path d="M496.81 556.39L365.51 693.58" stroke="hsl(228.5, 77.2%, 51.5%)" stroke-width="1.5"></path><path d="M496.81 556.39L692.8 656.16" stroke="hsl(228.5, 77.2%, 51.5%)" stroke-width="1.5"></path><path d="M496.81 556.39L260.8 517.75" stroke="hsl(228.5, 77.2%, 51.5%)" stroke-width="1.5"></path><path d="M507.78 700L507.78 700" stroke="hsl(228.5, 77.2%, 51.5%)" stroke-width="1.5"></path><path d="M507.78 700L692.8 656.16" stroke="hsl(228.5, 77.2%, 51.5%)" stroke-width="1.5"></path><path d="M507.78 700L639.16 559.18" stroke="hsl(228.5, 77.2%, 51.5%)" stroke-width="1.5"></path><path d="M507.78 700L239.24 708.23" stroke="hsl(228.5, 77.2%, 51.5%)" stroke-width="1.5"></path><path d="M686.69 410.47L686.69 410.47" stroke="hsl(228.5, 77.2%, 51.5%)" stroke-width="1.5"></path><path d="M686.69 410.47L798.7 344.3" stroke="hsl(228.5, 77.2%, 51.5%)" stroke-width="1.5"></path><path d="M686.69 410.47L639.16 559.18" stroke="hsl(228.5, 77.2%, 51.5%)" stroke-width="1.5"></path><path d="M686.69 410.47L806.63 539.98" stroke="hsl(228.5, 77.2%, 51.5%)" stroke-width="1.5"></path><path d="M639.16 559.18L639.16 559.18" stroke="hsl(228.5, 77.2%, 51.5%)" stroke-width="1.5"></path><path d="M639.16 559.18L692.8 656.16" stroke="hsl(228.5, 77.2%, 51.5%)" stroke-width="1.5"></path><path d="M639.16 559.18L806.63 539.98" stroke="hsl(228.5, 77.2%, 51.5%)" stroke-width="1.5"></path><path d="M692.8 656.16L692.8 656.16" stroke="hsl(228.5, 77.2%, 51.5%)" stroke-width="1.5"></path><path d="M692.8 656.16L839.57 674.3" stroke="hsl(228.5, 77.2%, 51.5%)" stroke-width="1.5"></path><path d="M798.7 344.3L798.7 344.3" stroke="hsl(228.5, 77.2%, 51.5%)" stroke-width="1.5"></path><path d="M806.63 539.98L806.63 539.98" stroke="hsl(228.5, 77.2%, 51.5%)" stroke-width="1.5"></path><path d="M806.63 539.98L839.57 674.3" stroke="hsl(228.5, 77.2%, 51.5%)" stroke-width="1.5"></path><path d="M806.63 539.98L692.8 656.16" stroke="hsl(228.5, 77.2%, 51.5%)" stroke-width="1.5"></path><path d="M839.57 674.3L839.57 674.3" stroke="hsl(228.5, 77.2%, 51.5%)" stroke-width="1.5"></path><path d="M839.57 674.3L977.03 691.85" stroke="hsl(228.5, 77.2%, 51.5%)" stroke-width="1.5"></path><path d="M974.56 243.06L974.56 243.06" stroke="hsl(228.5, 77.2%, 51.5%)" stroke-width="1.5"></path><path d="M974.56 243.06L1093.5 236.11" stroke="hsl(228.5, 77.2%, 51.5%)" stroke-width="1.5"></path><path d="M1001.48 559.84L1001.48 559.84" stroke="hsl(228.5, 77.2%, 51.5%)" stroke-width="1.5"></path><path d="M1001.48 559.84L977.03 691.85" stroke="hsl(228.5, 77.2%, 51.5%)" stroke-width="1.5"></path><path d="M977.03 691.85L977.03 691.85" stroke="hsl(228.5, 77.2%, 51.5%)" stroke-width="1.5"></path><path d="M1093.5 236.11L1093.5 236.11" stroke="hsl(228.5, 77.2%, 51.5%)" stroke-width="1.5"></path><path d="M1096.78 396.38L1096.78 396.38" stroke="hsl(228.5, 77.2%, 51.5%)" stroke-width="1.5"></path><path d="M1096.78 396.38L1244.34 348.73" stroke="hsl(228.5, 77.2%, 51.5%)" stroke-width="1.5"></path><path d="M1096.78 396.38L1093.5 236.11" stroke="hsl(228.5, 77.2%, 51.5%)" stroke-width="1.5"></path><path d="M1096.78 396.38L1001.48 559.84" stroke="hsl(228.5, 77.2%, 51.5%)" stroke-width="1.5"></path><path d="M1275.12 -52.17L1275.12 -52.17" stroke="hsl(228.5, 77.2%, 51.5%)" stroke-width="1.5"></path><path d="M1275.12 -52.17L1292.62 83.22" stroke="hsl(228.5, 77.2%, 51.5%)" stroke-width="1.5"></path><path d="M1275.12 -52.17L1405.52 -104.84" stroke="hsl(228.5, 77.2%, 51.5%)" stroke-width="1.5"></path><path d="M1275.12 -52.17L1421.06 93.46" stroke="hsl(228.5, 77.2%, 51.5%)" stroke-width="1.5"></path><path d="M1275.12 -52.17L1540.51 -46.75" stroke="hsl(228.5, 77.2%, 51.5%)" stroke-width="1.5"></path><path d="M1275.12 -52.17L1267.76 240.18" stroke="hsl(228.5, 77.2%, 51.5%)" stroke-width="1.5"></path><path d="M1292.62 83.22L1292.62 83.22" stroke="hsl(228.5, 77.2%, 51.5%)" stroke-width="1.5"></path><path d="M1292.62 83.22L1421.06 93.46" stroke="hsl(228.5, 77.2%, 51.5%)" stroke-width="1.5"></path><path d="M1292.62 83.22L1267.76 240.18" stroke="hsl(228.5, 77.2%, 51.5%)" stroke-width="1.5"></path><path d="M1292.62 83.22L1414.14 220.25" stroke="hsl(228.5, 77.2%, 51.5%)" stroke-width="1.5"></path><path d="M1292.62 83.22L1405.52 -104.84" stroke="hsl(228.5, 77.2%, 51.5%)" stroke-width="1.5"></path><path d="M1267.76 240.18L1267.76 240.18" stroke="hsl(228.5, 77.2%, 51.5%)" stroke-width="1.5"></path><path d="M1267.76 240.18L1244.34 348.73" stroke="hsl(228.5, 77.2%, 51.5%)" stroke-width="1.5"></path><path d="M1267.76 240.18L1414.14 220.25" stroke="hsl(228.5, 77.2%, 51.5%)" stroke-width="1.5"></path><path d="M1244.34 348.73L1244.34 348.73" stroke="hsl(228.5, 77.2%, 51.5%)" stroke-width="1.5"></path><path d="M1301.61 501.54L1301.61 501.54" stroke="hsl(228.5, 77.2%, 51.5%)" stroke-width="1.5"></path><path d="M1301.61 501.54L1456.47 543.77" stroke="hsl(228.5, 77.2%, 51.5%)" stroke-width="1.5"></path><path d="M1301.61 501.54L1244.34 348.73" stroke="hsl(228.5, 77.2%, 51.5%)" stroke-width="1.5"></path><path d="M1405.52 -104.84L1405.52 -104.84" stroke="hsl(228.5, 77.2%, 51.5%)" stroke-width="1.5"></path><path d="M1405.52 -104.84L1540.51 -46.75" stroke="hsl(228.5, 77.2%, 51.5%)" stroke-width="1.5"></path><path d="M1405.52 -104.84L1421.06 93.46" stroke="hsl(228.5, 77.2%, 51.5%)" stroke-width="1.5"></path><path d="M1414.14 220.25L1414.14 220.25" stroke="hsl(228.5, 77.2%, 51.5%)" stroke-width="1.5"></path><path d="M1414.14 220.25L1442.1 358.57" stroke="hsl(228.5, 77.2%, 51.5%)" stroke-width="1.5"></path><path d="M1414.14 220.25L1546.98 69.6" stroke="hsl(228.5, 77.2%, 51.5%)" stroke-width="1.5"></path><path d="M1442.1 358.57L1442.1 358.57" stroke="hsl(228.5, 77.2%, 51.5%)" stroke-width="1.5"></path><path d="M1442.1 358.57L1599.64 384.68" stroke="hsl(228.5, 77.2%, 51.5%)" stroke-width="1.5"></path><path d="M1442.1 358.57L1456.47 543.77" stroke="hsl(228.5, 77.2%, 51.5%)" stroke-width="1.5"></path><path d="M1442.1 358.57L1244.34 348.73" stroke="hsl(228.5, 77.2%, 51.5%)" stroke-width="1.5"></path><path d="M1456.47 543.77L1456.47 543.77" stroke="hsl(228.5, 77.2%, 51.5%)" stroke-width="1.5"></path><path d="M1456.47 543.77L1562.94 535.67" stroke="hsl(228.5, 77.2%, 51.5%)" stroke-width="1.5"></path><path d="M1540.51 -46.75L1540.51 -46.75" stroke="hsl(228.5, 77.2%, 51.5%)" stroke-width="1.5"></path><path d="M1540.51 -46.75L1546.98 69.6" stroke="hsl(228.5, 77.2%, 51.5%)" stroke-width="1.5"></path><path d="M1546.98 69.6L1546.98 69.6" stroke="hsl(228.5, 77.2%, 51.5%)" stroke-width="1.5"></path><path d="M1546.98 69.6L1405.52 -104.84" stroke="hsl(228.5, 77.2%, 51.5%)" stroke-width="1.5"></path><path d="M1599.64 384.68L1599.64 384.68" stroke="hsl(228.5, 77.2%, 51.5%)" stroke-width="1.5"></path><path d="M1599.64 384.68L1562.94 535.67" stroke="hsl(228.5, 77.2%, 51.5%)" stroke-width="1.5"></path><path d="M1599.64 384.68L1456.47 543.77" stroke="hsl(228.5, 77.2%, 51.5%)" stroke-width="1.5"></path><path d="M1599.64 384.68L1414.14 220.25" stroke="hsl(228.5, 77.2%, 51.5%)" stroke-width="1.5"></path><path d="M1599.64 384.68L1446.51 655.49" stroke="hsl(228.5, 77.2%, 51.5%)" stroke-width="1.5"></path><path d="M1562.94 535.67L1562.94 535.67" stroke="hsl(228.5, 77.2%, 51.5%)" stroke-width="1.5"></path><path d="M1588.84 697L1588.84 697" stroke="hsl(228.5, 77.2%, 51.5%)" stroke-width="1.5"></path><path d="M1588.84 697L1562.94 535.67" stroke="hsl(228.5, 77.2%, 51.5%)" stroke-width="1.5"></path><path d="M1588.84 697L1456.47 543.77" stroke="hsl(228.5, 77.2%, 51.5%)" stroke-width="1.5"></path><path d="M1588.84 697L1599.64 384.68" stroke="hsl(228.5, 77.2%, 51.5%)" stroke-width="1.5"></path><path d="M1588.84 697L1301.61 501.54" stroke="hsl(228.5, 77.2%, 51.5%)" stroke-width="1.5"></path><circle r="25" cx="-74.16" cy="703.84" fill="url(&quot;#SvgjsRadialGradient1879&quot;)"></circle><circle r="25" cx="260.8" cy="517.75" fill="url(&quot;#SvgjsRadialGradient1879&quot;)"></circle><circle r="25" cx="406.07" cy="502.63" fill="url(&quot;#SvgjsRadialGradient1879&quot;)"></circle><circle r="25" cx="959.66" cy="367.98" fill="url(&quot;#SvgjsRadialGradient1879&quot;)"></circle><circle r="25" cx="1094.42" cy="529.85" fill="url(&quot;#SvgjsRadialGradient1879&quot;)"></circle><circle r="25" cx="1156.93" cy="668.02" fill="url(&quot;#SvgjsRadialGradient1879&quot;)"></circle><circle r="25" cx="1421.06" cy="93.46" fill="url(&quot;#SvgjsRadialGradient1879&quot;)"></circle><circle r="25" cx="1446.51" cy="655.49" fill="url(&quot;#SvgjsRadialGradient1879&quot;)"></circle><circle r="25" cx="1558.44" cy="245.68" fill="url(&quot;#SvgjsRadialGradient1879&quot;)"></circle><circle r="5" cx="-109.63" cy="514.37" fill="#8b9ad9"></circle><circle r="5" cx="62.97" cy="539.73" fill="#8b9ad9"></circle><circle r="5" cx="86.97" cy="656.01" fill="#8b9ad9"></circle><circle r="5" cx="239.24" cy="708.23" fill="#8b9ad9"></circle><circle r="5" cx="365.51" cy="693.58" fill="#8b9ad9"></circle><circle r="5" cx="496.81" cy="556.39" fill="#8b9ad9"></circle><circle r="5" cx="507.78" cy="700" fill="#8b9ad9"></circle><circle r="5" cx="686.69" cy="410.47" fill="#8b9ad9"></circle><circle r="5" cx="639.16" cy="559.18" fill="#8b9ad9"></circle><circle r="5" cx="692.8" cy="656.16" fill="#8b9ad9"></circle><circle r="5" cx="798.7" cy="344.3" fill="#8b9ad9"></circle><circle r="5" cx="806.63" cy="539.98" fill="#8b9ad9"></circle><circle r="5" cx="839.57" cy="674.3" fill="#8b9ad9"></circle><circle r="5" cx="974.56" cy="243.06" fill="#8b9ad9"></circle><circle r="5" cx="1001.48" cy="559.84" fill="#8b9ad9"></circle><circle r="5" cx="977.03" cy="691.85" fill="#8b9ad9"></circle><circle r="5" cx="1093.5" cy="236.11" fill="#8b9ad9"></circle><circle r="5" cx="1096.78" cy="396.38" fill="#8b9ad9"></circle><circle r="5" cx="1275.12" cy="-52.17" fill="#8b9ad9"></circle><circle r="5" cx="1292.62" cy="83.22" fill="#8b9ad9"></circle><circle r="5" cx="1267.76" cy="240.18" fill="#8b9ad9"></circle><circle r="5" cx="1244.34" cy="348.73" fill="#8b9ad9"></circle><circle r="5" cx="1301.61" cy="501.54" fill="#8b9ad9"></circle><circle r="5" cx="1405.52" cy="-104.84" fill="#8b9ad9"></circle><circle r="5" cx="1414.14" cy="220.25" fill="#8b9ad9"></circle><circle r="5" cx="1442.1" cy="358.57" fill="#8b9ad9"></circle><circle r="5" cx="1456.47" cy="543.77" fill="#8b9ad9"></circle><circle r="5" cx="1540.51" cy="-46.75" fill="#8b9ad9"></circle><circle r="5" cx="1546.98" cy="69.6" fill="#8b9ad9"></circle><circle r="5" cx="1599.64" cy="384.68" fill="#8b9ad9"></circle><circle r="5" cx="1562.94" cy="535.67" fill="#8b9ad9"></circle><circle r="5" cx="1588.84" cy="697" fill="#8b9ad9"></circle></g><defs><mask id="SvgjsMask1877"><rect width="1440" height="560" fill="#ffffff"></rect></mask><linearGradient x1="50%" y1="100%" x2="50%" y2="0%" gradientUnits="userSpaceOnUse" id="SvgjsLinearGradient1878"><stop stop-color="rgba(14, 42, 71, 0)" offset="0"></stop><stop stop-color="#00459e" offset="1"></stop></linearGradient><radialGradient id="SvgjsRadialGradient1879"><stop stop-color="#ffffff" offset="0.1"></stop><stop stop-color="#1735b3" offset="0.2"></stop><stop stop-color="rgba(23, 53, 179, 0)" offset="1"></stop></radialGradient></defs></svg>