<svg xmlns="http://www.w3.org/2000/svg" version="1.1" xmlns:xlink="http://www.w3.org/1999/xlink" xmlns:svgjs="http://svgjs.dev/svgjs" width="1440" height="560" preserveAspectRatio="none" viewBox="0 0 1440 560"><g mask="url(&quot;#SvgjsMask1078&quot;)" fill="none"><path d="M897 412L896 683" stroke-width="8" stroke="url(&quot;#SvgjsLinearGradient1079&quot;)" stroke-linecap="round" class="Down"></path><path d="M558 448L557 632" stroke-width="6" stroke="url(&quot;#SvgjsLinearGradient1079&quot;)" stroke-linecap="round" class="Down"></path><path d="M319 29L318 265" stroke-width="10" stroke="url(&quot;#SvgjsLinearGradient1080&quot;)" stroke-linecap="round" class="Up"></path><path d="M6 227L5 -27" stroke-width="10" stroke="url(&quot;#SvgjsLinearGradient1080&quot;)" stroke-linecap="round" class="Up"></path><path d="M1327 351L1326 144" stroke-width="8" stroke="url(&quot;#SvgjsLinearGradient1079&quot;)" stroke-linecap="round" class="Down"></path><path d="M1206 377L1205 625" stroke-width="8" stroke="url(&quot;#SvgjsLinearGradient1080&quot;)" stroke-linecap="round" class="Up"></path><path d="M931 122L930 -175" stroke-width="6" stroke="url(&quot;#SvgjsLinearGradient1079&quot;)" stroke-linecap="round" class="Down"></path><path d="M493 374L492 224" stroke-width="6" stroke="url(&quot;#SvgjsLinearGradient1079&quot;)" stroke-linecap="round" class="Down"></path><path d="M431 517L430 298" stroke-width="6" stroke="url(&quot;#SvgjsLinearGradient1079&quot;)" stroke-linecap="round" class="Down"></path><path d="M929 517L928 821" stroke-width="8" stroke="url(&quot;#SvgjsLinearGradient1079&quot;)" stroke-linecap="round" class="Down"></path><path d="M779 109L778 -43" stroke-width="10" stroke="url(&quot;#SvgjsLinearGradient1080&quot;)" stroke-linecap="round" class="Up"></path><path d="M744 238L743 -30" stroke-width="10" stroke="url(&quot;#SvgjsLinearGradient1080&quot;)" stroke-linecap="round" class="Up"></path><path d="M821 215L820 -155" stroke-width="8" stroke="url(&quot;#SvgjsLinearGradient1079&quot;)" stroke-linecap="round" class="Down"></path><path d="M321 147L320 -54" stroke-width="8" stroke="url(&quot;#SvgjsLinearGradient1079&quot;)" stroke-linecap="round" class="Down"></path><path d="M1074 436L1073 246" stroke-width="8" stroke="url(&quot;#SvgjsLinearGradient1080&quot;)" stroke-linecap="round" class="Up"></path><path d="M301 124L300 465" stroke-width="8" stroke="url(&quot;#SvgjsLinearGradient1080&quot;)" stroke-linecap="round" class="Up"></path><path d="M614 337L613 689" stroke-width="10" stroke="url(&quot;#SvgjsLinearGradient1079&quot;)" stroke-linecap="round" class="Down"></path><path d="M897 197L896 -167" stroke-width="8" stroke="url(&quot;#SvgjsLinearGradient1079&quot;)" stroke-linecap="round" class="Down"></path><path d="M1138 484L1137 785" stroke-width="6" stroke="url(&quot;#SvgjsLinearGradient1080&quot;)" stroke-linecap="round" class="Up"></path><path d="M96 172L95 590" stroke-width="8" stroke="url(&quot;#SvgjsLinearGradient1080&quot;)" stroke-linecap="round" class="Up"></path><path d="M166 194L165 -167" stroke-width="6" stroke="url(&quot;#SvgjsLinearGradient1080&quot;)" stroke-linecap="round" class="Up"></path><path d="M1066 102L1065 -73" stroke-width="6" stroke="url(&quot;#SvgjsLinearGradient1080&quot;)" stroke-linecap="round" class="Up"></path><path d="M828 180L827 -124" stroke-width="6" stroke="url(&quot;#SvgjsLinearGradient1079&quot;)" stroke-linecap="round" class="Down"></path><path d="M1104 290L1103 -60" stroke-width="8" stroke="url(&quot;#SvgjsLinearGradient1080&quot;)" stroke-linecap="round" class="Up"></path><path d="M974 391L973 169" stroke-width="6" stroke="url(&quot;#SvgjsLinearGradient1080&quot;)" stroke-linecap="round" class="Up"></path><path d="M704 220L703 -64" stroke-width="10" stroke="url(&quot;#SvgjsLinearGradient1079&quot;)" stroke-linecap="round" class="Down"></path><path d="M838 429L837 173" stroke-width="8" stroke="url(&quot;#SvgjsLinearGradient1079&quot;)" stroke-linecap="round" class="Down"></path><path d="M291 66L290 -160" stroke-width="8" stroke="url(&quot;#SvgjsLinearGradient1080&quot;)" stroke-linecap="round" class="Up"></path><path d="M434 263L433 609" stroke-width="10" stroke="url(&quot;#SvgjsLinearGradient1079&quot;)" stroke-linecap="round" class="Down"></path><path d="M1382 543L1381 826" stroke-width="10" stroke="url(&quot;#SvgjsLinearGradient1079&quot;)" stroke-linecap="round" class="Down"></path><path d="M1276 199L1275 471" stroke-width="10" stroke="url(&quot;#SvgjsLinearGradient1079&quot;)" stroke-linecap="round" class="Down"></path><path d="M200 7L199 -247" stroke-width="6" stroke="url(&quot;#SvgjsLinearGradient1080&quot;)" stroke-linecap="round" class="Up"></path><path d="M109 432L108 248" stroke-width="10" stroke="url(&quot;#SvgjsLinearGradient1080&quot;)" stroke-linecap="round" class="Up"></path><path d="M1303 530L1302 705" stroke-width="6" stroke="url(&quot;#SvgjsLinearGradient1080&quot;)" stroke-linecap="round" class="Up"></path><path d="M158 143L157 493" stroke-width="6" stroke="url(&quot;#SvgjsLinearGradient1080&quot;)" stroke-linecap="round" class="Up"></path><path d="M809 104L808 -55" stroke-width="6" stroke="url(&quot;#SvgjsLinearGradient1079&quot;)" stroke-linecap="round" class="Down"></path></g><defs><mask id="SvgjsMask1078"><rect width="1440" height="560" fill="#ffffff"></rect></mask><linearGradient x1="0%" y1="0%" x2="0%" y2="100%" id="SvgjsLinearGradient1079"><stop stop-color="rgba(4, 19, 43, 0)" offset="0"></stop><stop stop-color="rgba(4, 19, 43, 1)" offset="1"></stop></linearGradient><linearGradient x1="0%" y1="100%" x2="0%" y2="0%" id="SvgjsLinearGradient1080"><stop stop-color="rgba(4, 19, 43, 0)" offset="0"></stop><stop stop-color="rgba(4, 19, 43, 1)" offset="1"></stop></linearGradient></defs></svg>