<svg xmlns="http://www.w3.org/2000/svg" version="1.1" xmlns:xlink="http://www.w3.org/1999/xlink" xmlns:svgjs="http://svgjs.dev/svgjs" width="1440" height="250" preserveAspectRatio="none" viewBox="0 0 1440 250"><g mask="url(&quot;#SvgjsMask1078&quot;)" fill="none"><path d="M42 250L292 0L457 0L207 250z" fill="url(&quot;#SvgjsLinearGradient1079&quot;)"></path><path d="M257.6 250L507.6 0L581.1 0L331.1 250z" fill="url(&quot;#SvgjsLinearGradient1079&quot;)"></path><path d="M507.20000000000005 250L757.2 0L920.7 0L670.7 250z" fill="url(&quot;#SvgjsLinearGradient1079&quot;)"></path><path d="M716.8000000000001 250L966.8000000000001 0L1149.8000000000002 0L899.8000000000001 250z" fill="url(&quot;#SvgjsLinearGradient1079&quot;)"></path><path d="M1437 250L1187 0L1097 0L1347 250z" fill="url(&quot;#SvgjsLinearGradient1080&quot;)"></path><path d="M1163.4 250L913.4000000000001 0L788.9000000000001 0L1038.9 250z" fill="url(&quot;#SvgjsLinearGradient1080&quot;)"></path><path d="M950.8 250L700.8 0L481.79999999999995 0L731.8 250z" fill="url(&quot;#SvgjsLinearGradient1080&quot;)"></path><path d="M712.1999999999999 250L462.19999999999993 0L241.69999999999993 0L491.69999999999993 250z" fill="url(&quot;#SvgjsLinearGradient1080&quot;)"></path><path d="M1312.8028409886297 250L1440 122.80284098862978L1440 250z" fill="url(&quot;#SvgjsLinearGradient1079&quot;)"></path><path d="M0 250L127.19715901137022 250L 0 122.80284098862978z" fill="url(&quot;#SvgjsLinearGradient1080&quot;)"></path></g><defs><mask id="SvgjsMask1078"><rect width="1440" height="250" fill="#ffffff"></rect></mask><linearGradient x1="0%" y1="100%" x2="100%" y2="0%" id="SvgjsLinearGradient1079"><stop stop-color="rgba(4, 19, 43, 1)" offset="0"></stop><stop stop-opacity="0" stop-color="rgba(4, 19, 43, 1)" offset="0.66"></stop></linearGradient><linearGradient x1="100%" y1="100%" x2="0%" y2="0%" id="SvgjsLinearGradient1080"><stop stop-color="rgba(4, 19, 43, 1)" offset="0"></stop><stop stop-opacity="0" stop-color="rgba(4, 19, 43, 1)" offset="0.66"></stop></linearGradient></defs></svg>