<svg xmlns="http://www.w3.org/2000/svg" version="1.1" xmlns:xlink="http://www.w3.org/1999/xlink" xmlns:svgjs="http://svgjs.dev/svgjs" width="1440" height="560" preserveAspectRatio="none" viewBox="0 0 1440 560"><g mask="url(&quot;#SvgjsMask1060&quot;)" fill="none"><rect width="1440" height="560" x="0" y="0" fill="rgba(12, 16, 20, 1)"></rect><path d="M0,384.124C89.057,378.236,186.474,455.241,261.359,406.682C336.296,358.089,324.952,245.133,347.582,158.735C366.245,87.482,377.229,18.521,382.278,-54.963C388.699,-148.418,424.307,-247.137,381.18,-330.294C335.534,-418.308,246.587,-491.299,148.498,-505.738C52.281,-519.902,-28.118,-439.556,-118.585,-403.863C-199.292,-372.021,-284.886,-358.917,-354.586,-307.251C-437.542,-245.76,-526.952,-179.085,-555.644,-79.89C-585.556,23.52,-560.519,137.785,-510.955,233.345C-462.644,326.491,-385.194,413.078,-284.555,442.776C-189.749,470.753,-98.633,390.645,0,384.124" fill="#0b0f13"></path><path d="M1440 1135.767C1547.719 1122.1950000000002 1648.19 1084.7649999999999 1739.8600000000001 1026.591 1831.955 968.1469999999999 1933.68 904.6120000000001 1967.601 800.947 2000.7910000000002 699.515 1947.18 593.441 1914.877 491.723 1887.354 405.057 1845.593 328.18 1793.741 253.48200000000003 1735.935 170.207 1686.921 74.54399999999998 1595.25 31.269000000000005 1497.612-14.822999999999979 1381.409-22.663999999999987 1278.592 10.294999999999959 1176.841 42.912000000000035 1101.649 125.67500000000001 1036.513 210.377 974.2660000000001 291.323 922.26 382.596 914.026 484.376 906.045 583.033 965.2 669.372 991.6659999999999 764.7470000000001 1024.153 881.819 993.702 1031.348 1087.3029999999999 1108.808 1180.018 1185.5349999999999 1320.598 1150.8110000000001 1440 1135.767" fill="#0d1115"></path></g><defs><mask id="SvgjsMask1060"><rect width="1440" height="560" fill="#ffffff"></rect></mask></defs></svg>