<svg class="border shadow-md dark:border-slate-700" viewBox="0 0 902 451" style="width: 902px; height: 451px;" xmlns="http://www.w3.org/2000/svg" preserveAspectRatio="none"><rect class="bg" id="bg" x="0" y="0" width="902" height="451" fill="#04132B"/><g transform="rotate(0 451 225.5)"><path id="-1" d="M -1102.00 -82.75 S -561.00 -139.13&#10;            0.00 -82.75 345.00 -139.13&#10;            1102.00 -82.75 1421.00 -139.13&#10;            2204.00 -82.75 h 110 V 651 H -1102.00 Z" fill="#04132B"/><path id="0" d="M -1102.00 30.00 S -561.00 -57.00&#10;            0.00 30.00 541.00 -26.38&#10;            1102.00 30.00 1643.00 -81.00&#10;            2204.00 30.00 h 110 V 651 H -1102.00 Z" fill="#051226"/><path id="1" d="M -1102.00 142.75 S -561.00 86.38&#10;            0.00 142.75 541.00 86.38&#10;            1102.00 142.75 1643.00 86.38&#10;            2204.00 142.75 h 110 V 651 H -1102.00 Z" fill="#061121"/><path id="2" d="M -1102.00 255.50 S -561.00 187.50&#10;            0.00 255.50 541.00 199.13&#10;            1102.00 255.50 1431.00 199.13&#10;            2204.00 255.50 h 110 V 651 H -1102.00 Z" fill="#07101c"/><path id="3" d="M -1102.00 368.25 S -561.00 286.25&#10;            0.00 368.25 541.00 311.88&#10;            1102.00 368.25 1622.00 295.25&#10;            2204.00 368.25 h 110 V 651 H -1102.00 Z" fill="#080f17"/></g></svg>