<svg class="border shadow-md dark:border-slate-700" viewBox="0 0 902 451" style="width: 902px; height: 451px;" xmlns="http://www.w3.org/2000/svg" preserveAspectRatio="none"><rect class="bg" id="bg" x="0" y="0" width="902" height="451" fill="#04132B"/><g transform="rotate(0 451 225.5)"><path id="-1" d="M -1102.00 11.96 S -561.00 2.94&#10;            0.00 11.96 478.00 -2.04&#10;            1102.00 11.96 1481.00 -3.04&#10;            2204.00 11.96 h 110 V 651 H -1102.00 Z" fill="#04132B"/><path id="0" d="M -1102.00 30.00 S -904.00 20.98&#10;            0.00 30.00 541.00 20.00&#10;            1102.00 30.00 1643.00 16.00&#10;            2204.00 30.00 h 110 V 651 H -1102.00 Z" fill="#04122a"/><path id="1" d="M -1102.00 48.04 S -561.00 35.04&#10;            0.00 48.04 541.00 39.02&#10;            1102.00 48.04 1643.00 39.02&#10;            2204.00 48.04 h 110 V 651 H -1102.00 Z" fill="#041129"/><path id="2" d="M -1102.00 66.08 S -769.00 57.06&#10;            0.00 66.08 460.00 57.06&#10;            1102.00 66.08 1492.00 57.06&#10;            2204.00 66.08 h 110 V 651 H -1102.00 Z" fill="#041028"/><path id="3" d="M -1102.00 84.12 S -786.00 69.12&#10;            0.00 84.12 525.00 75.10&#10;            1102.00 84.12 1643.00 74.12&#10;            2204.00 84.12 h 110 V 651 H -1102.00 Z" fill="#040f27"/><path id="4" d="M -1102.00 102.16 S -939.00 92.16&#10;            0.00 102.16 430.00 93.14&#10;            1102.00 102.16 1601.00 93.14&#10;            2204.00 102.16 h 110 V 651 H -1102.00 Z" fill="#040e26"/><path id="5" d="M -1102.00 120.20 S -561.00 111.18&#10;            0.00 120.20 500.00 109.20&#10;            1102.00 120.20 1643.00 111.18&#10;            2204.00 120.20 h 110 V 651 H -1102.00 Z" fill="#040d25"/><path id="6" d="M -1102.00 138.24 S -951.00 124.24&#10;            0.00 138.24 541.00 127.24&#10;            1102.00 138.24 1433.00 129.22&#10;            2204.00 138.24 h 110 V 651 H -1102.00 Z" fill="#040c24"/><path id="7" d="M -1102.00 156.28 S -561.00 142.28&#10;            0.00 156.28 532.00 147.26&#10;            1102.00 156.28 1643.00 147.26&#10;            2204.00 156.28 h 110 V 651 H -1102.00 Z" fill="#040b23"/><path id="8" d="M -1102.00 174.32 S -595.00 158.32&#10;            0.00 174.32 541.00 165.30&#10;            1102.00 174.32 1591.00 162.32&#10;            2204.00 174.32 h 110 V 651 H -1102.00 Z" fill="#040a22"/><path id="9" d="M -1102.00 192.36 S -561.00 183.34&#10;            0.00 192.36 438.00 183.34&#10;            1102.00 192.36 1643.00 183.34&#10;            2204.00 192.36 h 110 V 651 H -1102.00 Z" fill="#040921"/><path id="10" d="M -1102.00 210.40 S -561.00 201.38&#10;            0.00 210.40 541.00 201.38&#10;            1102.00 210.40 1643.00 201.38&#10;            2204.00 210.40 h 110 V 651 H -1102.00 Z" fill="#040820"/><path id="11" d="M -1102.00 228.44 S -561.00 216.44&#10;            0.00 228.44 518.00 216.44&#10;            1102.00 228.44 1536.00 214.44&#10;            2204.00 228.44 h 110 V 651 H -1102.00 Z" fill="#04071f"/><path id="12" d="M -1102.00 246.48 S -734.00 237.46&#10;            0.00 246.48 479.00 237.46&#10;            1102.00 246.48 1517.00 235.48&#10;            2204.00 246.48 h 110 V 651 H -1102.00 Z" fill="#04061e"/><path id="13" d="M -1102.00 264.52 S -797.00 255.50&#10;            0.00 264.52 176.00 255.50&#10;            1102.00 264.52 1643.00 247.52&#10;            2204.00 264.52 h 110 V 651 H -1102.00 Z" fill="#04051d"/><path id="14" d="M -1102.00 282.56 S -789.00 268.56&#10;            0.00 282.56 541.00 272.56&#10;            1102.00 282.56 1615.00 273.54&#10;            2204.00 282.56 h 110 V 651 H -1102.00 Z" fill="#04041c"/><path id="15" d="M -1102.00 300.60 S -561.00 290.60&#10;            0.00 300.60 176.00 291.58&#10;            1102.00 300.60 1639.00 287.60&#10;            2204.00 300.60 h 110 V 651 H -1102.00 Z" fill="#04031b"/><path id="16" d="M -1102.00 318.64 S -946.00 309.62&#10;            0.00 318.64 541.00 309.62&#10;            1102.00 318.64 1411.00 309.62&#10;            2204.00 318.64 h 110 V 651 H -1102.00 Z" fill="#04021a"/><path id="17" d="M -1102.00 336.68 S -981.00 321.68&#10;            0.00 336.68 541.00 327.66&#10;            1102.00 336.68 1417.00 324.68&#10;            2204.00 336.68 h 110 V 651 H -1102.00 Z" fill="#040119"/><path id="18" d="M -1102.00 354.72 S -561.00 340.72&#10;            0.00 354.72 541.00 345.70&#10;            1102.00 354.72 1627.00 345.70&#10;            2204.00 354.72 h 110 V 651 H -1102.00 Z" fill="#040018"/><path id="19" d="M -1102.00 372.76 S -763.00 362.76&#10;            0.00 372.76 541.00 363.74&#10;            1102.00 372.76 1643.00 363.74&#10;            2204.00 372.76 h 110 V 651 H -1102.00 Z" fill="#040017"/><path id="20" d="M -1102.00 390.80 S -561.00 378.80&#10;            0.00 390.80 514.00 381.78&#10;            1102.00 390.80 1611.00 381.78&#10;            2204.00 390.80 h 110 V 651 H -1102.00 Z" fill="#040016"/><path id="21" d="M -1102.00 408.84 S -804.00 391.84&#10;            0.00 408.84 541.00 395.84&#10;            1102.00 408.84 1555.00 399.82&#10;            2204.00 408.84 h 110 V 651 H -1102.00 Z" fill="#040015"/><path id="22" d="M -1102.00 426.88 S -584.00 417.86&#10;            0.00 426.88 541.00 417.86&#10;            1102.00 426.88 1643.00 417.86&#10;            2204.00 426.88 h 110 V 651 H -1102.00 Z" fill="#040014"/><path id="23" d="M -1102.00 444.92 S -561.00 435.90&#10;            0.00 444.92 541.00 432.92&#10;            1102.00 444.92 1643.00 435.90&#10;            2204.00 444.92 h 110 V 651 H -1102.00 Z" fill="#040013"/><path id="24" d="M -1102.00 462.96 S -561.00 447.96&#10;            0.00 462.96 136.00 453.94&#10;            1102.00 462.96 1643.00 446.96&#10;            2204.00 462.96 h 110 V 651 H -1102.00 Z" fill="#040012"/></g></svg>