<svg id="visual" viewBox="0 0 900 450" width="900" height="450" xmlns="http://www.w3.org/2000/svg" xmlns:xlink="http://www.w3.org/1999/xlink" version="1.1"><rect x="0" y="0" width="900" height="450" fill="#0C1014"></rect><defs><linearGradient id="grad1_0" x1="50%" y1="0%" x2="100%" y2="100%"><stop offset="10%" stop-color="#0c1014" stop-opacity="1"></stop><stop offset="90%" stop-color="#0c1014" stop-opacity="1"></stop></linearGradient></defs><defs><linearGradient id="grad2_0" x1="0%" y1="0%" x2="50%" y2="100%"><stop offset="10%" stop-color="#0c1014" stop-opacity="1"></stop><stop offset="90%" stop-color="#0c1014" stop-opacity="1"></stop></linearGradient></defs><g transform="translate(900, 0)"><path d="M0 157.5C-13.8 129.9 -27.7 102.3 -53.5 92.7C-79.3 83 -117.1 91.2 -136.4 78.8C-155.7 66.3 -156.6 33.1 -157.5 0L0 0Z" fill="#04132B"></path></g><g transform="translate(0, 450)"><path d="M0 -157.5C22.4 -144.7 44.8 -131.9 69.5 -120.4C94.2 -108.9 121.3 -98.6 136.4 -78.8C151.5 -58.9 154.5 -29.4 157.5 0L0 0Z" fill="#04132B"></path></g></svg>