<svg xmlns="http://www.w3.org/2000/svg" version="1.1" xmlns:xlink="http://www.w3.org/1999/xlink" xmlns:svgjs="http://svgjs.dev/svgjs" width="1440" height="560" preserveAspectRatio="none" viewBox="0 0 1440 560"><g mask="url(&quot;#SvgjsMask1016&quot;)" fill="none"><path d="M1264.7 357.51L1273.2 357.51L1273.2 394.43L1264.7 394.43z" fill="rgba(32, 47, 83, 1)"></path><path d="M896.02 306.7a43.44 43.44 0 1 0 75.56 42.88z" stroke="rgba(59, 143, 217, 1)"></path><path d="M384.26 530.45L422.7 530.45L422.7 531.98L384.26 531.98z" stroke="rgba(242, 139, 5, 1)"></path><path d="M687.8 100.76L693.3 100.76L693.3 124.15L687.8 124.15z" stroke="rgba(32, 47, 83, 1)"></path><path d="M710.38 273.25a10.67 10.67 0 1 0 16.57 13.44z" fill="rgba(32, 47, 83, 1)"></path><path d="M730.76 176.09L748.13 176.09L748.13 193.46L730.76 193.46z" stroke="rgba(32, 47, 83, 1)"></path><path d="M714.4 526.85L726.66 526.85L726.66 543.22L714.4 543.22z" fill="rgba(32, 47, 83, 1)"></path><path d="M1035.12 22.05 a33.01 33.01 0 1 0 66.02 0 a33.01 33.01 0 1 0 -66.02 0z" stroke="rgba(59, 143, 217, 1)"></path><path d="M889.21 113.56L943.98 113.56L943.98 168.33L889.21 168.33z" fill="rgba(242, 139, 5, 1)"></path><path d="M736.88 84.6L743.24 84.6L743.24 90.96L736.88 90.96z" fill="rgba(59, 143, 217, 1)"></path><path d="M488.08 69.94 a34.76 34.76 0 1 0 69.52 0 a34.76 34.76 0 1 0 -69.52 0z" stroke="rgba(242, 139, 5, 1)"></path><path d="M722.23 370.35 a16.33 16.33 0 1 0 32.66 0 a16.33 16.33 0 1 0 -32.66 0z" stroke="rgba(242, 139, 5, 1)"></path><path d="M21.23 83.03L67.91 83.03L67.91 132.82L21.23 132.82z" stroke="rgba(59, 143, 217, 1)"></path><path d="M428.41 76.48L469.55 76.48L469.55 117.62L428.41 117.62z" fill="rgba(59, 143, 217, 1)"></path><path d="M1151.71 212.63L1200.57 212.63L1200.57 237L1151.71 237z" stroke="rgba(59, 143, 217, 1)"></path><path d="M1131.74-1.79a15.48 15.48 0 1 0-11.13 28.89z" stroke="rgba(32, 47, 83, 1)"></path><path d="M849.26 15.61 a18.51 18.51 0 1 0 37.02 0 a18.51 18.51 0 1 0 -37.02 0z" stroke="rgba(59, 143, 217, 1)"></path><path d="M152.01 29 a4.79 4.79 0 1 0 9.58 0 a4.79 4.79 0 1 0 -9.58 0z" fill="rgba(32, 47, 83, 1)"></path><path d="M632.69 498.27 a46.18 46.18 0 1 0 92.36 0 a46.18 46.18 0 1 0 -92.36 0z" stroke="rgba(59, 143, 217, 1)"></path><path d="M957.58 518.99a38.45 38.45 0 1 0-76.11-10.98z" fill="rgba(32, 47, 83, 1)"></path><path d="M462.31 202.15a7.39 7.39 0 1 0-10.69-10.21z" stroke="rgba(59, 143, 217, 1)"></path><path d="M233.26 371.59L239.83 371.59L239.83 378.16L233.26 378.16z" stroke="rgba(59, 143, 217, 1)"></path><path d="M161.57 32.92a44.13 44.13 0 1 0 55.87 68.32z" stroke="rgba(32, 47, 83, 1)"></path><path d="M417.38 430.69 a30 30 0 1 0 60 0 a30 30 0 1 0 -60 0z" fill="rgba(59, 143, 217, 1)"></path><path d="M786.29 321.52a16.85 16.85 0 1 0 32.14 10.14z" stroke="rgba(59, 143, 217, 1)"></path><path d="M293.58 502.16L310.3 502.16L310.3 557.89L293.58 557.89z" stroke="rgba(242, 139, 5, 1)"></path><path d="M880.5 243.92 a26.85 26.85 0 1 0 53.7 0 a26.85 26.85 0 1 0 -53.7 0z" fill="rgba(59, 143, 217, 1)"></path><path d="M541.9 304.83a29.79 29.79 0 1 0-59.22-6.5z" stroke="rgba(32, 47, 83, 1)"></path><path d="M1308.44 510.51 a23.17 23.17 0 1 0 46.34 0 a23.17 23.17 0 1 0 -46.34 0z" stroke="rgba(242, 139, 5, 1)"></path><path d="M1194.29 168.82L1236.66 168.82L1236.66 181.98L1194.29 181.98z" fill="rgba(242, 139, 5, 1)"></path><path d="M674.5 156.79L685.83 156.79L685.83 168.12L674.5 168.12z" fill="rgba(242, 139, 5, 1)"></path><path d="M244.9 145.02L286.01 145.02L286.01 186.13L244.9 186.13z" stroke="rgba(59, 143, 217, 1)"></path><path d="M1412.37 218.68L1441.53 218.68L1441.53 233.19L1412.37 233.19z" fill="rgba(59, 143, 217, 1)"></path></g><defs><mask id="SvgjsMask1016"><rect width="1440" height="560" fill="#ffffff"></rect></mask></defs></svg>