<svg xmlns="http://www.w3.org/2000/svg" version="1.1" xmlns:xlink="http://www.w3.org/1999/xlink" xmlns:svgjs="http://svgjs.dev/svgjs" width="1440" height="560" preserveAspectRatio="none" viewBox="0 0 1440 560"><g mask="url(&quot;#SvgjsMask1000&quot;)" fill="none"><rect width="1440" height="560" x="0" y="0" fill="#0e2a47"></rect><path d="M0,320.939C64.547,319.816,131.586,324.024,187.49,291.739C244.615,258.749,288.003,203.797,310.327,141.722C331.75,82.153,317.156,18.355,308.351,-44.334C299.517,-107.23,305.211,-180.872,258.912,-224.349C212.816,-267.635,138.001,-245.633,76.849,-261.725C18.06,-277.195,-32.281,-317.137,-93.071,-316.971C-166.312,-316.771,-255.564,-318.251,-300.858,-260.695C-346.424,-202.794,-312.134,-117.786,-307.699,-44.24C-304.143,14.721,-296.435,70.779,-277.495,126.728C-256.566,188.554,-245.207,260.913,-191.731,298.339C-137.918,336.001,-65.673,322.082,0,320.939" fill="#0b2239"></path><path d="M1440 892.344C1504.609 903.431 1572.326 887.069 1628.767 853.7280000000001 1686.37 819.701 1741.3519999999999 769.881 1757.304 704.908 1772.691 642.238 1721.003 584.777 1710.43 521.118 1700.185 459.435 1733.5529999999999 388.128 1696.346 337.875 1659.075 287.536 1582.93 294.366 1524.968 270.627 1458.558 243.428 1401.62 176.44299999999998 1330.821 188.17000000000002 1259.92 199.914 1206.255 265.029 1173.275 328.882 1143.409 386.707 1168.964 455.28 1159.596 519.684 1150.2060000000001 584.24 1090.616 647.846 1118.287 706.922 1146 766.087 1232.126 762.754 1288.731 795.379 1341.695 825.905 1379.75 882.005 1440 892.344" fill="#113255"></path></g><defs><mask id="SvgjsMask1000"><rect width="1440" height="560" fill="#ffffff"></rect></mask></defs></svg>